#!OML:ASF H:\GeneralSubjects\Female5\Project 1\Capture day 1\Session 1\Female5.ASF
:FULLY-SPECIFIED
:DEGREES
695
root 12.8342 16.26 3.32328 -167.715 -2.38187 -178.559
lowerback 9.43154 1.66565 6.15369
upperback -9.38197 2.85961 1.3938
thorax -15.6042 0.471464 -2.44084
lowerneck -13.897 9.539 9.29277
upperneck 30.397 12.4948 -8.99189
head 13.8655 4.68824 -3.24597
rclavicle 1.06847e-014 2.38542e-014
rhumerus -53.597 12.8925 -76.3112
rradius 34.0738
rwrist -12.5068
rhand -25.8564 -17.0272
rfingers 7.12502
rthumb 0.68446 -47.0058
lclavicle 1.06847e-014 2.38542e-014
lhumerus -48.149 1.1594 73.7793
lradius 29.3098
lwrist -5.77014
lhand -24.2695 25.8301
lfingers 7.12502
lthumb 2.21706 55.7983
rfemur -7.16688 18.082 25.6225
rtibia 2.41681
rfoot -18.4187 -15.0767
rtoes -7.61253
lfemur -33.3677 -1.81516 -13.6385
ltibia 39.2175
lfoot -22.8036 -5.70974
ltoes -28.4033
696
root 12.7089 16.2572 3.28519 -168.027 -2.24335 -178.44
lowerback 9.55324 1.62371 5.92377
upperback -9.34544 2.78482 1.42282
thorax -15.6544 0.46756 -2.26872
lowerneck -13.8735 9.64038 9.48124
upperneck 30.4611 12.5597 -8.87867
head 13.9027 4.75143 -3.22131
rclavicle -3.77691e-015 2.78299e-014
rhumerus -53.788 13.1746 -76.708
rradius 34.1602
rwrist -12.3195
rhand -25.8933 -17.0389
rfingers 7.12502
rthumb 0.648809 -47.0177
lclavicle -3.77691e-015 2.78299e-014
lhumerus -48.3027 1.97334 72.8323
lradius 29.374
lwrist -6.22584
lhand -24.7122 26.8379
lfingers 7.12502
lthumb 1.78953 56.8102
rfemur -6.53318 18.1697 25.4323
rtibia 2.22384
rfoot -18.4807 -14.9401
rtoes -6.05945
lfemur -32.169 -3.20715 -10.7531
ltibia 37.2468
lfoot -26.187 -1.59476
ltoes -30.4803
697
root 12.5828 16.2486 3.24474 -168.321 -2.07762 -178.224
lowerback 9.69678 1.60171 5.67479
upperback -9.34961 2.73519 1.49535
thorax -15.7695 0.474708 -2.0417
lowerneck -13.7084 9.6762 9.78463
upperneck 30.463 12.5808 -9.06273
head 13.9131 4.76905 -3.34964
rclavicle 4.96962e-016 1.11319e-014
rhumerus -54.0968 13.5829 -77.2243
rradius 34.2803
rwrist -12.3476
rhand -26.031 -16.9033
rfingers 7.12502
rthumb 0.515821 -46.8824
lclavicle 4.96962e-016 1.11319e-014
lhumerus -48.3742 2.3626 72.1371
lradius 29.42
lwrist -6.06575
lhand -25.6784 27.4348
lfingers 7.12502
lthumb 0.856382 57.4128
rfemur -6.08336 18.3699 25.3259
rtibia 2.35245
rfoot -18.9749 -14.5139
rtoes -3.10275
lfemur -30.8486 -4.76353 -7.56874
ltibia 35.0428
lfoot -29.0746 3.24064
ltoes -28.8017
698
root 12.4583 16.233 3.19815 -168.594 -1.81272 -177.964
lowerback 9.71933 1.62976 5.30336
upperback -9.32876 2.72303 1.56558
thorax -15.7758 0.517947 -1.75399
lowerneck -13.526 9.70864 9.79534
upperneck 30.2609 12.5332 -8.70562
head 13.7483 4.81989 -3.21319
rclavicle -3.77691e-015 7.95139e-016
rhumerus -54.3257 13.768 -77.626
rradius 34.2666
rwrist -12.1591
rhand -26.2794 -16.7821
rfingers 7.12502
rthumb 0.2759 -46.7617
lclavicle -3.77691e-015 7.95139e-016
lhumerus -48.7582 2.93984 71.3442
lradius 29.8425
lwrist -6.10593
lhand -26.535 27.2829
lfingers 7.12502
lthumb 0.0290422 57.2626
rfemur -5.82587 18.2857 25.2426
rtibia 2.77568
rfoot -19.1052 -14.0636
rtoes -2.27358
lfemur -29.3288 -6.39192 -4.25533
ltibia 32.7116
lfoot -31.4752 7.09937
ltoes -25.6535
699
root 12.3225 16.2073 3.14433 -168.895 -1.40151 -177.864
lowerback 9.66712 1.65391 4.71582
upperback -9.26651 2.66448 1.60215
thorax -15.6917 0.567954 -1.37243
lowerneck -13.4945 9.8816 9.90582
upperneck 30.191 12.6202 -8.19054
head 13.6864 4.95471 -3.00328
rclavicle 8.00108e-015 2.46493e-014
rhumerus -54.353 13.824 -77.8303
rradius 34.0719
rwrist -11.6547
rhand -26.268 -16.8909
rfingers 7.12502
rthumb 0.286855 -46.8704
lclavicle 8.00108e-015 2.46493e-014
lhumerus -49.2419 3.55822 70.499
lradius 30.4949
lwrist -5.93271
lhand -26.7691 27.1253
lfingers 7.12502
lthumb -0.197117 57.105
rfemur -5.67101 17.7527 24.8798
rtibia 3.39248
rfoot -18.8286 -13.4583
rtoes -3.72249
lfemur -27.4312 -8.36581 -1.2785
ltibia 30.0782
lfoot -34.4648 8.53204
ltoes -23.3775
